<?xml version="1.0" standalone="no"?>
<!DOCTYPE svg PUBLIC "-//W3C//DTD SVG 20010904//EN"
 "http://www.w3.org/TR/2001/REC-SVG-20010904/DTD/svg10.dtd">
<svg version="1.0" xmlns="http://www.w3.org/2000/svg"
 width="450.000000pt" height="387.000000pt" viewBox="0 0 450.000000 387.000000"
 preserveAspectRatio="xMidYMid meet">
<metadata>
Created by potrace 1.15, written by Peter Selinger 2001-2017
</metadata>
<g transform="translate(0.000000,387.000000) scale(0.100000,-0.100000)"
fill="#000000" stroke="none">
<path d="M469 2585 c-85 -46 -88 -179 -6 -239 27 -20 44 -21 282 -24 l253 -3
33 -67 c18 -37 34 -72 35 -78 4 -25 528 -1201 543 -1218 40 -47 30 -46 913
-46 773 0 835 1 867 18 19 9 43 28 53 42 23 33 261 1192 253 1235 -7 44 -31
73 -73 91 -33 14 -139 16 -902 19 -950 3 -894 6 -952 -58 -23 -25 -27 -38 -25
-78 1 -27 5 -49 9 -49 3 0 11 -13 16 -29 20 -57 -2 -55 757 -57 385 -1 736 -2
779 -3 l79 -1 -6 -53 c-3 -29 -13 -76 -22 -105 l-17 -52 -62 -1 c-33 0 -283
-1 -554 -2 l-492 -2 -40 -45 c-38 -42 -40 -48 -36 -94 6 -55 24 -88 63 -113
25 -17 70 -18 545 -21 317 -2 518 -6 518 -12 0 -5 -16 -84 -35 -176 -19 -91
-35 -168 -35 -170 0 -2 -316 -3 -702 -2 l-701 3 -71 161 c-39 89 -76 167 -82
175 -17 22 -65 131 -60 137 6 5 -23 64 -35 72 -4 3 -10 17 -12 30 -5 26 -29
79 -77 170 -15 30 -34 74 -41 98 -7 23 -17 42 -21 42 -4 0 -8 11 -8 24 0 13
-7 29 -15 36 -8 7 -15 23 -15 35 0 12 -10 37 -23 56 -22 33 -119 251 -132 296
-3 12 -20 34 -36 48 l-31 25 -326 0 c-263 -1 -332 -4 -353 -15z"/>
<path d="M1895 758 c-126 -46 -203 -184 -176 -317 20 -100 79 -161 205 -211
l59 -24 67 23 c144 49 214 136 214 265 1 113 -54 205 -150 251 -46 23 -173 30
-219 13z"/>
<path d="M2855 751 c-56 -25 -101 -66 -133 -120 -24 -40 -27 -56 -27 -131 0
-68 4 -94 23 -132 28 -56 99 -108 190 -139 l62 -21 66 26 c87 33 149 81 176
136 19 36 23 62 23 130 0 75 -3 91 -27 131 -55 93 -134 139 -243 139 -46 0
-83 -7 -110 -19z"/>
</g>
</svg>
